<svg width="1600" height="900" viewBox="0 0 1600 900" fill="none" xmlns="http://www.w3.org/2000/svg">
  <rect width="1600" height="900" fill="#050609"/>
  <path d="M0 0H1600V900H0V0Z" fill="url(#bg)"/>
  <circle cx="272" cy="156" r="202" fill="#5EF2B6" fill-opacity=".15"/>
  <circle cx="1320" cy="178" r="196" fill="#FFD166" fill-opacity=".12"/>
  <circle cx="1160" cy="786" r="288" fill="#75D8FF" fill-opacity=".1"/>
  <g filter="url(#shadow)">
    <rect x="520" y="186" width="628" height="528" rx="32" fill="#111827" stroke="white" stroke-opacity=".14"/>
    <g opacity=".9">
      <path d="M572 250H1096M572 314H1096M572 378H1096M572 442H1096M572 506H1096M572 570H1096M572 634H1096" stroke="white" stroke-opacity=".09" stroke-width="4"/>
      <path d="M636 238V652M700 238V652M764 238V652M828 238V652M892 238V652M956 238V652M1020 238V652" stroke="white" stroke-opacity=".09" stroke-width="4"/>
    </g>
    <rect x="572" y="570" width="56" height="56" rx="12" fill="#5EF2B6"/>
    <rect x="636" y="570" width="56" height="56" rx="12" fill="#5EF2B6"/>
    <rect x="700" y="570" width="56" height="56" rx="12" fill="#5EF2B6"/>
    <rect x="828" y="506" width="56" height="56" rx="12" fill="#75D8FF"/>
    <rect x="892" y="506" width="56" height="56" rx="12" fill="#75D8FF"/>
    <rect x="828" y="570" width="56" height="56" rx="12" fill="#75D8FF"/>
    <rect x="956" y="378" width="56" height="56" rx="12" fill="#FFD166"/>
    <rect x="1020" y="378" width="56" height="56" rx="12" fill="#FFD166"/>
    <rect x="1020" y="442" width="56" height="56" rx="12" fill="#FFD166"/>
    <rect x="636" y="314" width="56" height="56" rx="12" fill="#FF8FAB"/>
    <rect x="636" y="378" width="56" height="56" rx="12" fill="#FF8FAB"/>
    <rect x="636" y="442" width="56" height="56" rx="12" fill="#FF8FAB"/>
    <rect x="764" y="250" width="56" height="56" rx="12" fill="#A99BFF"/>
    <rect x="828" y="250" width="56" height="56" rx="12" fill="#A99BFF"/>
    <rect x="892" y="250" width="56" height="56" rx="12" fill="#A99BFF"/>
    <rect x="956" y="250" width="56" height="56" rx="12" fill="#A99BFF"/>
  </g>
  <path d="M458 758H1192" stroke="#FFFFFF" stroke-opacity=".1" stroke-width="3"/>
  <path d="M544 792H1058" stroke="#5EF2B6" stroke-opacity=".34" stroke-width="7" stroke-linecap="round"/>
  <text x="88" y="152" fill="#FFFFFF" font-family="Inter, Arial, sans-serif" font-size="78" font-weight="850" letter-spacing="-2">Block Puzzle</text>
  <text x="94" y="212" fill="#A9B4C4" font-family="Inter, Arial, sans-serif" font-size="32" font-weight="700">A polished HTML5 grid puzzle for quick score chasing.</text>
  <rect x="96" y="260" width="188" height="44" rx="22" fill="#5EF2B6" fill-opacity=".16" stroke="#5EF2B6" stroke-opacity=".32"/>
  <text x="126" y="290" fill="#DFFFF1" font-family="Inter, Arial, sans-serif" font-size="18" font-weight="850" letter-spacing="2">PUZZLE</text>
  <rect x="306" y="260" width="218" height="44" rx="22" fill="#FFD166" fill-opacity=".14" stroke="#FFD166" stroke-opacity=".28"/>
  <text x="336" y="290" fill="#FFF4CF" font-family="Inter, Arial, sans-serif" font-size="18" font-weight="850" letter-spacing="2">GRID LOGIC</text>
  <defs>
    <linearGradient id="bg" x1="160" y1="76" x2="1398" y2="836" gradientUnits="userSpaceOnUse">
      <stop stop-color="#141B2B"/>
      <stop offset=".5" stop-color="#0A1020"/>
      <stop offset="1" stop-color="#050609"/>
    </linearGradient>
    <filter id="shadow" x="472" y="154" width="724" height="620" filterUnits="userSpaceOnUse" color-interpolation-filters="sRGB">
      <feFlood flood-opacity="0" result="BackgroundImageFix"/>
      <feColorMatrix in="SourceAlpha" type="matrix" values="0 0 0 0 0 0 0 0 0 0 0 0 0 0 0 0 0 0 127 0" result="hardAlpha"/>
      <feOffset dy="18"/>
      <feGaussianBlur stdDeviation="24"/>
      <feComposite in2="hardAlpha" operator="out"/>
      <feColorMatrix type="matrix" values="0 0 0 0 0 0 0 0 0 0 0 0 0 0 0 0 0 0 0.42 0"/>
      <feBlend mode="normal" in2="BackgroundImageFix" result="effect1_dropShadow"/>
      <feBlend mode="normal" in="SourceGraphic" in2="effect1_dropShadow" result="shape"/>
    </filter>
  </defs>
</svg>
