<svg width="960" height="600" viewBox="0 0 960 600" fill="none" xmlns="http://www.w3.org/2000/svg">
  <rect width="960" height="600" fill="#07080D"/>
  <path d="M0 0H960V600H0V0Z" fill="url(#bg)"/>
  <circle cx="172" cy="122" r="128" fill="#5EF2B6" fill-opacity=".15"/>
  <circle cx="806" cy="154" r="126" fill="#FFD166" fill-opacity=".12"/>
  <circle cx="704" cy="510" r="168" fill="#75D8FF" fill-opacity=".12"/>
  <g filter="url(#shadow)">
    <rect x="268" y="150" width="424" height="356" rx="24" fill="#111827" stroke="white" stroke-opacity=".14"/>
    <g opacity=".86">
      <path d="M302 192H658M302 236H658M302 280H658M302 324H658M302 368H658M302 412H658M302 456H658" stroke="white" stroke-opacity=".09" stroke-width="3"/>
      <path d="M346 184V470M390 184V470M434 184V470M478 184V470M522 184V470M566 184V470M610 184V470" stroke="white" stroke-opacity=".09" stroke-width="3"/>
    </g>
    <rect x="302" y="412" width="38" height="38" rx="9" fill="#5EF2B6"/>
    <rect x="346" y="412" width="38" height="38" rx="9" fill="#5EF2B6"/>
    <rect x="390" y="412" width="38" height="38" rx="9" fill="#5EF2B6"/>
    <rect x="478" y="368" width="38" height="38" rx="9" fill="#75D8FF"/>
    <rect x="522" y="368" width="38" height="38" rx="9" fill="#75D8FF"/>
    <rect x="478" y="412" width="38" height="38" rx="9" fill="#75D8FF"/>
    <rect x="566" y="280" width="38" height="38" rx="9" fill="#FFD166"/>
    <rect x="610" y="280" width="38" height="38" rx="9" fill="#FFD166"/>
    <rect x="610" y="324" width="38" height="38" rx="9" fill="#FFD166"/>
    <rect x="346" y="236" width="38" height="38" rx="9" fill="#FF8FAB"/>
    <rect x="346" y="280" width="38" height="38" rx="9" fill="#FF8FAB"/>
    <rect x="346" y="324" width="38" height="38" rx="9" fill="#FF8FAB"/>
  </g>
  <text x="54" y="92" fill="#FFFFFF" font-family="Inter, Arial, sans-serif" font-size="54" font-weight="850" letter-spacing="-1">Block Puzzle</text>
  <text x="58" y="136" fill="#A9B4C4" font-family="Inter, Arial, sans-serif" font-size="24" font-weight="700">Place pieces. Clear lines. Keep space open.</text>
  <defs>
    <linearGradient id="bg" x1="94" y1="48" x2="826" y2="560" gradientUnits="userSpaceOnUse">
      <stop stop-color="#141B2B"/>
      <stop offset=".53" stop-color="#0A1020"/>
      <stop offset="1" stop-color="#050609"/>
    </linearGradient>
    <filter id="shadow" x="228" y="122" width="504" height="444" filterUnits="userSpaceOnUse" color-interpolation-filters="sRGB">
      <feFlood flood-opacity="0" result="BackgroundImageFix"/>
      <feColorMatrix in="SourceAlpha" type="matrix" values="0 0 0 0 0 0 0 0 0 0 0 0 0 0 0 0 0 0 127 0" result="hardAlpha"/>
      <feOffset dy="16"/>
      <feGaussianBlur stdDeviation="20"/>
      <feComposite in2="hardAlpha" operator="out"/>
      <feColorMatrix type="matrix" values="0 0 0 0 0 0 0 0 0 0 0 0 0 0 0 0 0 0 0.38 0"/>
      <feBlend mode="normal" in2="BackgroundImageFix" result="effect1_dropShadow"/>
      <feBlend mode="normal" in="SourceGraphic" in2="effect1_dropShadow" result="shape"/>
    </filter>
  </defs>
</svg>
