<svg xmlns="http://www.w3.org/2000/svg" width="1440" height="900" viewBox="0 0 1440 900" role="img" aria-labelledby="title desc">
  <title id="title">Panda Mart cover art</title>
  <desc id="desc">A top-down forest market with a panda shopkeeper, bamboo garden, stocked shelf, and customers.</desc>
  <defs>
    <linearGradient id="sky" x1="0" x2="1" y1="0" y2="1">
      <stop offset="0" stop-color="#2d8e4a" />
      <stop offset=".58" stop-color="#113d22" />
      <stop offset="1" stop-color="#07120d" />
    </linearGradient>
    <linearGradient id="shop" x1="0" x2="1" y1="0" y2="1">
      <stop offset="0" stop-color="#3c9a56" />
      <stop offset="1" stop-color="#1f512d" />
    </linearGradient>
    <filter id="shadow" x="-20%" y="-20%" width="140%" height="140%">
      <feDropShadow dx="0" dy="24" stdDeviation="28" flood-color="#000000" flood-opacity=".36" />
    </filter>
  </defs>
  <rect width="1440" height="900" fill="url(#sky)" />
  <circle cx="190" cy="130" r="220" fill="#70f0a4" opacity=".18" />
  <circle cx="1240" cy="740" r="280" fill="#ffd166" opacity=".14" />
  <g opacity=".2" stroke="#d8f07a" stroke-linecap="round" stroke-width="18">
    <path d="M112 770c60-120 88-250 82-390" />
    <path d="M1256 114c-38 130-28 274 42 432" />
    <path d="M1312 150c-42 140-32 284 42 438" />
  </g>
  <g filter="url(#shadow)">
    <rect x="142" y="136" width="1156" height="664" rx="48" fill="url(#shop)" stroke="#ffffff" stroke-opacity=".16" stroke-width="5" />
    <g opacity=".14" stroke="#ffffff" stroke-width="2">
      <path d="M142 260h1156M142 384h1156M142 508h1156M142 632h1156" />
      <path d="M266 136v664M390 136v664M514 136v664M638 136v664M762 136v664M886 136v664M1010 136v664M1134 136v664" />
    </g>
    <rect x="214" y="520" width="256" height="170" rx="30" fill="#2c773d" stroke="#d8f07a" stroke-opacity=".48" stroke-width="6" />
    <text x="248" y="500" font-family="Arial, sans-serif" font-size="28" font-weight="900" fill="#d8f07a">Bamboo Garden</text>
    <g stroke="#d8f07a" stroke-linecap="round" stroke-width="22">
      <path d="M260 576h74" />
      <path d="M356 576h70" />
      <path d="M260 636h74" />
      <path d="M356 636h70" />
    </g>
    <g stroke="#6bbf59" stroke-width="5">
      <path d="M294 558v35M392 558v35M294 618v35M392 618v35" />
    </g>
    <rect x="776" y="296" width="280" height="208" rx="26" fill="#7c5434" stroke="#ffffff" stroke-opacity=".2" stroke-width="5" />
    <text x="804" y="276" font-family="Arial, sans-serif" font-size="28" font-weight="900" fill="#f5fff6">Bamboo Shelf</text>
    <rect x="810" y="362" width="212" height="18" rx="9" fill="#4b2f1d" opacity=".48" />
    <rect x="810" y="444" width="212" height="18" rx="9" fill="#4b2f1d" opacity=".48" />
    <g stroke="#d8f07a" stroke-linecap="round" stroke-width="22">
      <path d="M822 338h66" />
      <path d="M910 338h70" />
      <path d="M822 420h66" />
      <path d="M910 420h70" />
      <path d="M842 482h78" />
      <path d="M934 482h58" />
    </g>
    <rect x="1110" y="336" width="150" height="134" rx="26" fill="#31533a" stroke="#ffd166" stroke-opacity=".45" stroke-width="5" />
    <circle cx="1220" cy="370" r="24" fill="#ffd166" />
    <text x="1127" y="320" font-family="Arial, sans-serif" font-size="28" font-weight="900" fill="#ffd166">Checkout</text>
    <g transform="translate(610 478)">
      <ellipse cx="0" cy="102" rx="96" ry="26" fill="#000" opacity=".22" />
      <circle cx="-66" cy="-70" r="36" fill="#101915" />
      <circle cx="66" cy="-70" r="36" fill="#101915" />
      <circle cx="0" cy="0" r="108" fill="#f7fff8" />
      <ellipse cx="-35" cy="-12" rx="25" ry="36" fill="#101915" transform="rotate(-22 -35 -12)" />
      <ellipse cx="35" cy="-12" rx="25" ry="36" fill="#101915" transform="rotate(22 35 -12)" />
      <circle cx="-27" cy="-20" r="7" fill="#f7fff8" />
      <circle cx="27" cy="-20" r="7" fill="#f7fff8" />
      <circle cx="0" cy="30" r="13" fill="#101915" />
      <rect x="-52" y="70" width="104" height="52" rx="20" fill="#a8703e" />
      <path d="M-36 96h48M16 98h52" stroke="#d8f07a" stroke-width="18" stroke-linecap="round" />
    </g>
    <g>
      <circle cx="1036" cy="622" r="36" fill="#f7b267" />
      <circle cx="1134" cy="612" r="36" fill="#9be7ff" />
      <circle cx="1226" cy="624" r="36" fill="#f79ac0" />
      <g fill="#111915">
        <circle cx="1024" cy="614" r="5" />
        <circle cx="1048" cy="614" r="5" />
        <circle cx="1122" cy="604" r="5" />
        <circle cx="1146" cy="604" r="5" />
        <circle cx="1214" cy="616" r="5" />
        <circle cx="1238" cy="616" r="5" />
      </g>
    </g>
  </g>
  <text x="110" y="112" font-family="Arial, sans-serif" font-size="30" font-weight="900" letter-spacing="6" fill="#70f0a4">PIXLO ORIGINAL</text>
  <text x="108" y="820" font-family="Arial, sans-serif" font-size="92" font-weight="900" letter-spacing="-6" fill="#f5fff6">Panda Mart</text>
  <text x="112" y="864" font-family="Arial, sans-serif" font-size="28" font-weight="700" fill="#b8cbbd">Stock bamboo, serve forest guests, and upgrade a cozy shop.</text>
</svg>
