<svg xmlns="http://www.w3.org/2000/svg" width="1500" height="900" viewBox="0 0 1500 900" role="img" aria-label="2048 cover">
  <defs>
    <linearGradient id="bg" x1="0" y1="0" x2="1" y2="1">
      <stop offset="0" stop-color="#121729"/>
      <stop offset=".55" stop-color="#080a12"/>
      <stop offset="1" stop-color="#050609"/>
    </linearGradient>
    <linearGradient id="hero" x1="0" y1="0" x2="1" y2="1">
      <stop offset="0" stop-color="#5ef2b6"/>
      <stop offset="1" stop-color="#b6ffd8"/>
    </linearGradient>
  </defs>
  <rect width="1500" height="900" fill="url(#bg)"/>
  <circle cx="260" cy="170" r="280" fill="#5ef2b6" opacity=".14"/>
  <circle cx="1230" cy="710" r="360" fill="#ffd166" opacity=".11"/>
  <rect x="730" y="130" width="580" height="580" rx="42" fill="#0b111d" stroke="#ffffff" stroke-opacity=".14" stroke-width="2"/>
  <g fill="#ffffff" fill-opacity=".08">
    <rect x="775" y="175" width="104" height="104" rx="22"/>
    <rect x="905" y="175" width="104" height="104" rx="22"/>
    <rect x="1035" y="175" width="104" height="104" rx="22"/>
    <rect x="1165" y="175" width="104" height="104" rx="22"/>
    <rect x="775" y="305" width="104" height="104" rx="22"/>
    <rect x="905" y="305" width="104" height="104" rx="22"/>
    <rect x="1035" y="305" width="104" height="104" rx="22"/>
    <rect x="1165" y="305" width="104" height="104" rx="22"/>
    <rect x="775" y="435" width="104" height="104" rx="22"/>
    <rect x="905" y="435" width="104" height="104" rx="22"/>
    <rect x="1035" y="435" width="104" height="104" rx="22"/>
    <rect x="1165" y="435" width="104" height="104" rx="22"/>
    <rect x="775" y="565" width="104" height="104" rx="22"/>
    <rect x="905" y="565" width="104" height="104" rx="22"/>
    <rect x="1035" y="565" width="104" height="104" rx="22"/>
    <rect x="1165" y="565" width="104" height="104" rx="22"/>
  </g>
  <rect x="905" y="305" width="104" height="104" rx="22" fill="#75d8ff"/>
  <rect x="1035" y="435" width="104" height="104" rx="22" fill="#ffd166"/>
  <rect x="1165" y="565" width="104" height="104" rx="22" fill="url(#hero)"/>
  <text x="957" y="372" text-anchor="middle" font-family="Inter, Arial, sans-serif" font-size="38" font-weight="900" fill="#071014">64</text>
  <text x="1087" y="502" text-anchor="middle" font-family="Inter, Arial, sans-serif" font-size="34" font-weight="900" fill="#071014">512</text>
  <text x="1217" y="632" text-anchor="middle" font-family="Inter, Arial, sans-serif" font-size="29" font-weight="900" fill="#071014">2048</text>
  <text x="150" y="326" font-family="Inter, Arial, sans-serif" font-size="118" font-weight="950" letter-spacing="-8" fill="#ffffff">2048</text>
  <text x="157" y="386" font-family="Inter, Arial, sans-serif" font-size="27" font-weight="800" letter-spacing="4" fill="#5ef2b6">SLIDE. MERGE. SURVIVE.</text>
</svg>
