<svg xmlns="http://www.w3.org/2000/svg" width="900" height="620" viewBox="0 0 900 620" role="img" aria-label="2048 thumbnail">
  <defs>
    <linearGradient id="bg" x1="0" y1="0" x2="1" y2="1">
      <stop offset="0" stop-color="#111827"/>
      <stop offset="1" stop-color="#050609"/>
    </linearGradient>
    <linearGradient id="tile" x1="0" y1="0" x2="1" y2="1">
      <stop offset="0" stop-color="#5ef2b6"/>
      <stop offset="1" stop-color="#b6ffd8"/>
    </linearGradient>
  </defs>
  <rect width="900" height="620" fill="url(#bg)"/>
  <circle cx="178" cy="126" r="168" fill="#5ef2b6" opacity=".13"/>
  <circle cx="755" cy="496" r="214" fill="#ffd166" opacity=".12"/>
  <rect x="215" y="90" width="470" height="470" rx="34" fill="#0b111d" stroke="#ffffff" stroke-opacity=".14" stroke-width="2"/>
  <g fill="#ffffff" fill-opacity=".08">
    <rect x="251" y="126" width="84" height="84" rx="18"/>
    <rect x="354" y="126" width="84" height="84" rx="18"/>
    <rect x="457" y="126" width="84" height="84" rx="18"/>
    <rect x="560" y="126" width="84" height="84" rx="18"/>
    <rect x="251" y="229" width="84" height="84" rx="18"/>
    <rect x="354" y="229" width="84" height="84" rx="18"/>
    <rect x="457" y="229" width="84" height="84" rx="18"/>
    <rect x="560" y="229" width="84" height="84" rx="18"/>
    <rect x="251" y="332" width="84" height="84" rx="18"/>
    <rect x="354" y="332" width="84" height="84" rx="18"/>
    <rect x="457" y="332" width="84" height="84" rx="18"/>
    <rect x="560" y="332" width="84" height="84" rx="18"/>
    <rect x="251" y="435" width="84" height="84" rx="18"/>
    <rect x="354" y="435" width="84" height="84" rx="18"/>
    <rect x="457" y="435" width="84" height="84" rx="18"/>
    <rect x="560" y="435" width="84" height="84" rx="18"/>
  </g>
  <rect x="354" y="229" width="84" height="84" rx="18" fill="#75d8ff"/>
  <rect x="457" y="332" width="84" height="84" rx="18" fill="#ffd166"/>
  <rect x="560" y="435" width="84" height="84" rx="18" fill="url(#tile)"/>
  <text x="396" y="283" text-anchor="middle" font-family="Inter, Arial, sans-serif" font-size="34" font-weight="900" fill="#071014">64</text>
  <text x="499" y="386" text-anchor="middle" font-family="Inter, Arial, sans-serif" font-size="30" font-weight="900" fill="#071014">512</text>
  <text x="602" y="489" text-anchor="middle" font-family="Inter, Arial, sans-serif" font-size="25" font-weight="900" fill="#071014">2048</text>
  <text x="450" y="62" text-anchor="middle" font-family="Inter, Arial, sans-serif" font-size="22" font-weight="900" letter-spacing="5" fill="#5ef2b6">PIXLOGAMES</text>
</svg>
