<svg xmlns="http://www.w3.org/2000/svg" viewBox="0 0 1400 760" role="img" aria-labelledby="title desc">
  <title id="title">Color Sort cover</title>
  <desc id="desc">A polished set of colorful sorting tubes on a dark PixloGames background.</desc>
  <defs>
    <linearGradient id="bg" x1="0" x2="1" y1="0" y2="1">
      <stop offset="0" stop-color="#151b2e"/>
      <stop offset=".55" stop-color="#090d17"/>
      <stop offset="1" stop-color="#050608"/>
    </linearGradient>
    <filter id="soft" x="-30%" y="-30%" width="160%" height="160%">
      <feGaussianBlur stdDeviation="16"/>
    </filter>
  </defs>
  <rect width="1400" height="760" fill="url(#bg)"/>
  <circle cx="220" cy="150" r="210" fill="#5ef2b6" opacity=".13" filter="url(#soft)"/>
  <circle cx="1120" cy="610" r="250" fill="#a99bff" opacity=".14" filter="url(#soft)"/>
  <g transform="translate(760 110)" stroke="#ffffff" stroke-opacity=".18" stroke-width="6">
    <g>
      <path d="M0 0h116v350a58 58 0 0 1-116 0z" fill="rgba(255,255,255,.06)"/>
      <rect x="14" y="244" width="88" height="58" rx="15" fill="#5ef2b6" stroke="none"/>
      <rect x="14" y="180" width="88" height="58" rx="15" fill="#75d8ff" stroke="none"/>
      <rect x="14" y="116" width="88" height="58" rx="15" fill="#ffd166" stroke="none"/>
    </g>
    <g transform="translate(158 0)">
      <path d="M0 0h116v350a58 58 0 0 1-116 0z" fill="rgba(255,255,255,.06)"/>
      <rect x="14" y="244" width="88" height="58" rx="15" fill="#ff6b8a" stroke="none"/>
      <rect x="14" y="180" width="88" height="58" rx="15" fill="#a99bff" stroke="none"/>
      <rect x="14" y="116" width="88" height="58" rx="15" fill="#5ef2b6" stroke="none"/>
    </g>
    <g transform="translate(316 0)">
      <path d="M0 0h116v350a58 58 0 0 1-116 0z" fill="rgba(255,255,255,.06)"/>
      <rect x="14" y="244" width="88" height="58" rx="15" fill="#75d8ff" stroke="none"/>
      <rect x="14" y="180" width="88" height="58" rx="15" fill="#ffd166" stroke="none"/>
      <rect x="14" y="116" width="88" height="58" rx="15" fill="#ff6b8a" stroke="none"/>
    </g>
  </g>
  <text x="92" y="278" fill="#5ef2b6" font-family="Inter, Arial, sans-serif" font-size="18" font-weight="900" letter-spacing="8">PIXLO ORIGINAL</text>
  <text x="92" y="360" fill="#f8fbff" font-family="Inter, Arial, sans-serif" font-size="96" font-weight="950">Color Sort</text>
  <text x="98" y="416" fill="#aab5c5" font-family="Inter, Arial, sans-serif" font-size="28" font-weight="700">Pour, match, and solve each clean stack.</text>
</svg>
