<svg width="1600" height="900" viewBox="0 0 1600 900" fill="none" xmlns="http://www.w3.org/2000/svg">
  <rect width="1600" height="900" fill="#050609"/>
  <path d="M0 0H1600V900H0V0Z" fill="url(#sky)"/>
  <circle cx="1268" cy="152" r="150" fill="#52F2B5" fill-opacity=".16"/>
  <circle cx="318" cy="186" r="190" fill="#FF6B6B" fill-opacity=".13"/>
  <circle cx="790" cy="102" r="88" fill="#FFD166" fill-opacity=".1"/>
  <path d="M0 552C164 501 315 477 484 501C651 524 779 587 979 565C1211 539 1360 456 1600 430V900H0V552Z" fill="#111522"/>
  <path d="M0 650H1600" stroke="#FFFFFF" stroke-opacity=".16" stroke-width="10"/>
  <path d="M64 686H240M351 686H539M665 686H855M978 686H1179M1294 686H1505" stroke="#52F2B5" stroke-opacity=".58" stroke-width="10" stroke-linecap="round"/>
  <g filter="url(#runnerShadow)">
    <rect x="292" y="408" width="126" height="174" rx="28" fill="#52F2B5"/>
    <circle cx="352" cy="366" r="54" fill="#EAFEF6"/>
    <path d="M314 514L226 608" stroke="#EAFEF6" stroke-width="28" stroke-linecap="round"/>
    <path d="M400 526L501 630" stroke="#EAFEF6" stroke-width="28" stroke-linecap="round"/>
    <path d="M404 438L528 394" stroke="#EAFEF6" stroke-width="24" stroke-linecap="round"/>
    <path d="M306 446L196 390" stroke="#EAFEF6" stroke-width="24" stroke-linecap="round"/>
  </g>
  <rect x="966" y="504" width="118" height="148" rx="16" fill="#FF6B6B"/>
  <rect x="1154" y="444" width="160" height="208" rx="16" fill="#FFD166"/>
  <rect x="1372" y="544" width="94" height="108" rx="16" fill="#52F2B5"/>
  <path d="M714 310H1372" stroke="#FFFFFF" stroke-opacity=".09" stroke-width="3"/>
  <path d="M744 372H1262" stroke="#FFFFFF" stroke-opacity=".08" stroke-width="3"/>
  <path d="M765 248H1090" stroke="#FFFFFF" stroke-opacity=".08" stroke-width="3"/>
  <text x="90" y="155" fill="#FFFFFF" font-family="Inter, Arial, sans-serif" font-size="78" font-weight="850" letter-spacing="-2">Endless Runner</text>
  <text x="96" y="213" fill="#B8C0CC" font-family="Inter, Arial, sans-serif" font-size="32" font-weight="700">A fast, touch-ready HTML5 arcade runner.</text>
  <rect x="98" y="262" width="210" height="44" rx="22" fill="#52F2B5" fill-opacity=".16" stroke="#52F2B5" stroke-opacity=".32"/>
  <text x="126" y="292" fill="#DFFFF1" font-family="Inter, Arial, sans-serif" font-size="18" font-weight="800" letter-spacing="2">INSTANT PLAY</text>
  <defs>
    <linearGradient id="sky" x1="188" y1="69" x2="1406" y2="815" gradientUnits="userSpaceOnUse">
      <stop stop-color="#171C2E"/>
      <stop offset=".5" stop-color="#0A1022"/>
      <stop offset="1" stop-color="#050609"/>
    </linearGradient>
    <filter id="runnerShadow" x="162" y="312" width="401" height="352" filterUnits="userSpaceOnUse" color-interpolation-filters="sRGB">
      <feFlood flood-opacity="0" result="BackgroundImageFix"/>
      <feColorMatrix in="SourceAlpha" type="matrix" values="0 0 0 0 0 0 0 0 0 0 0 0 0 0 0 0 0 0 127 0" result="hardAlpha"/>
      <feOffset dy="18"/>
      <feGaussianBlur stdDeviation="18"/>
      <feComposite in2="hardAlpha" operator="out"/>
      <feColorMatrix type="matrix" values="0 0 0 0 0.003 0 0 0 0 0.005 0 0 0 0 0.009 0 0 0 0.46 0"/>
      <feBlend mode="normal" in2="BackgroundImageFix" result="effect1_dropShadow_1_2"/>
      <feBlend mode="normal" in="SourceGraphic" in2="effect1_dropShadow_1_2" result="shape"/>
    </filter>
  </defs>
</svg>
