<svg width="1600" height="900" viewBox="0 0 1600 900" fill="none" xmlns="http://www.w3.org/2000/svg">
  <rect width="1600" height="900" fill="#050609"/>
  <path d="M0 0H1600V900H0V0Z" fill="url(#bg)"/>
  <circle cx="284" cy="156" r="196" fill="#75D8FF" fill-opacity=".13"/>
  <circle cx="1300" cy="150" r="172" fill="#5EF2B6" fill-opacity=".15"/>
  <circle cx="1148" cy="760" r="256" fill="#FF8FAB" fill-opacity=".11"/>
  <g filter="url(#shadow)">
    <rect x="486" y="220" width="172" height="214" rx="24" fill="#151B2A" stroke="white" stroke-opacity=".14"/>
    <rect x="700" y="220" width="172" height="214" rx="24" fill="#5EF2B6"/>
    <path d="M786 292L818 356H754L786 292Z" fill="#06110C"/>
    <rect x="914" y="220" width="172" height="214" rx="24" fill="#151B2A" stroke="white" stroke-opacity=".14"/>
    <rect x="486" y="472" width="172" height="214" rx="24" fill="#FFD166"/>
    <circle cx="572" cy="579" r="42" fill="#071014"/>
    <rect x="700" y="472" width="172" height="214" rx="24" fill="#151B2A" stroke="white" stroke-opacity=".14"/>
    <rect x="914" y="472" width="172" height="214" rx="24" fill="#75D8FF"/>
    <path d="M1000 535L1038 579L1000 623L962 579L1000 535Z" fill="#071014"/>
  </g>
  <path d="M534 312H610M534 348H610M962 312H1038M962 348H1038M748 564H824M748 600H824" stroke="#FFFFFF" stroke-opacity=".18" stroke-width="10" stroke-linecap="round"/>
  <path d="M412 742H1188" stroke="#FFFFFF" stroke-opacity=".1" stroke-width="3"/>
  <path d="M486 774H1086" stroke="#5EF2B6" stroke-opacity=".32" stroke-width="6" stroke-linecap="round"/>
  <text x="88" y="152" fill="#FFFFFF" font-family="Inter, Arial, sans-serif" font-size="78" font-weight="850" letter-spacing="-2">Memory Match</text>
  <text x="94" y="212" fill="#A9B4C4" font-family="Inter, Arial, sans-serif" font-size="32" font-weight="700">A polished HTML5 card matching puzzle.</text>
  <rect x="96" y="260" width="198" height="44" rx="22" fill="#5EF2B6" fill-opacity=".16" stroke="#5EF2B6" stroke-opacity=".32"/>
  <text x="126" y="290" fill="#DFFFF1" font-family="Inter, Arial, sans-serif" font-size="18" font-weight="850" letter-spacing="2">PUZZLE</text>
  <rect x="316" y="260" width="224" height="44" rx="22" fill="#75D8FF" fill-opacity=".14" stroke="#75D8FF" stroke-opacity=".28"/>
  <text x="346" y="290" fill="#E7F8FF" font-family="Inter, Arial, sans-serif" font-size="18" font-weight="850" letter-spacing="2">MOBILE READY</text>
  <defs>
    <linearGradient id="bg" x1="154" y1="74" x2="1396" y2="836" gradientUnits="userSpaceOnUse">
      <stop stop-color="#151B2B"/>
      <stop offset=".5" stop-color="#0A1020"/>
      <stop offset="1" stop-color="#050609"/>
    </linearGradient>
    <filter id="shadow" x="438" y="188" width="696" height="558" filterUnits="userSpaceOnUse" color-interpolation-filters="sRGB">
      <feFlood flood-opacity="0" result="BackgroundImageFix"/>
      <feColorMatrix in="SourceAlpha" type="matrix" values="0 0 0 0 0 0 0 0 0 0 0 0 0 0 0 0 0 0 127 0" result="hardAlpha"/>
      <feOffset dy="18"/>
      <feGaussianBlur stdDeviation="24"/>
      <feComposite in2="hardAlpha" operator="out"/>
      <feColorMatrix type="matrix" values="0 0 0 0 0 0 0 0 0 0 0 0 0 0 0 0 0 0 0.42 0"/>
      <feBlend mode="normal" in2="BackgroundImageFix" result="effect1_dropShadow"/>
      <feBlend mode="normal" in="SourceGraphic" in2="effect1_dropShadow" result="shape"/>
    </filter>
  </defs>
</svg>
