<svg width="960" height="600" viewBox="0 0 960 600" fill="none" xmlns="http://www.w3.org/2000/svg">
  <rect width="960" height="600" fill="#07080D"/>
  <path d="M0 0H960V600H0V0Z" fill="url(#bg)"/>
  <circle cx="192" cy="124" r="124" fill="#75D8FF" fill-opacity=".13"/>
  <circle cx="786" cy="112" r="104" fill="#5EF2B6" fill-opacity=".15"/>
  <circle cx="714" cy="492" r="158" fill="#FF8FAB" fill-opacity=".12"/>
  <g filter="url(#shadow)">
    <rect x="238" y="156" width="124" height="154" rx="18" fill="#151B2A" stroke="white" stroke-opacity=".14"/>
    <rect x="392" y="156" width="124" height="154" rx="18" fill="#5EF2B6"/>
    <path d="M454 214L472 250H436L454 214Z" fill="#06110C"/>
    <rect x="546" y="156" width="124" height="154" rx="18" fill="#151B2A" stroke="white" stroke-opacity=".14"/>
    <rect x="238" y="338" width="124" height="154" rx="18" fill="#FFD166"/>
    <circle cx="300" cy="415" r="29" fill="#071014"/>
    <rect x="392" y="338" width="124" height="154" rx="18" fill="#151B2A" stroke="white" stroke-opacity=".14"/>
    <rect x="546" y="338" width="124" height="154" rx="18" fill="#75D8FF"/>
    <path d="M608 388L632 415L608 442L584 415L608 388Z" fill="#071014"/>
  </g>
  <path d="M273 220H327M273 246H327M581 220H635M581 246H635M427 402H481M427 428H481" stroke="#FFFFFF" stroke-opacity=".18" stroke-width="8" stroke-linecap="round"/>
  <text x="54" y="92" fill="#FFFFFF" font-family="Inter, Arial, sans-serif" font-size="54" font-weight="850" letter-spacing="-1">Memory Match</text>
  <text x="58" y="136" fill="#A9B4C4" font-family="Inter, Arial, sans-serif" font-size="24" font-weight="700">Flip. Remember. Clear the grid.</text>
  <defs>
    <linearGradient id="bg" x1="105" y1="54" x2="826" y2="560" gradientUnits="userSpaceOnUse">
      <stop stop-color="#151B2B"/>
      <stop offset=".54" stop-color="#0B1020"/>
      <stop offset="1" stop-color="#050609"/>
    </linearGradient>
    <filter id="shadow" x="202" y="132" width="504" height="408" filterUnits="userSpaceOnUse" color-interpolation-filters="sRGB">
      <feFlood flood-opacity="0" result="BackgroundImageFix"/>
      <feColorMatrix in="SourceAlpha" type="matrix" values="0 0 0 0 0 0 0 0 0 0 0 0 0 0 0 0 0 0 127 0" result="hardAlpha"/>
      <feOffset dy="12"/>
      <feGaussianBlur stdDeviation="18"/>
      <feComposite in2="hardAlpha" operator="out"/>
      <feColorMatrix type="matrix" values="0 0 0 0 0 0 0 0 0 0 0 0 0 0 0 0 0 0 0.36 0"/>
      <feBlend mode="normal" in2="BackgroundImageFix" result="effect1_dropShadow"/>
      <feBlend mode="normal" in="SourceGraphic" in2="effect1_dropShadow" result="shape"/>
    </filter>
  </defs>
</svg>
