<svg width="1600" height="900" viewBox="0 0 1600 900" fill="none" xmlns="http://www.w3.org/2000/svg">
  <rect width="1600" height="900" fill="#050609"/>
  <path d="M0 0H1600V900H0V0Z" fill="url(#bg)"/>
  <circle cx="270" cy="154" r="206" fill="#58FFC9" fill-opacity=".14"/>
  <circle cx="1320" cy="176" r="198" fill="#FFE36D" fill-opacity=".12"/>
  <circle cx="1164" cy="786" r="292" fill="#A58BFF" fill-opacity=".11"/>
  <g filter="url(#shadow)">
    <rect x="560" y="170" width="520" height="520" rx="36" fill="#111827" stroke="white" stroke-opacity=".14"/>
    <g opacity=".88">
      <rect x="606" y="216" width="96" height="96" rx="22" fill="#D8FFF1"/>
      <rect x="714" y="216" width="96" height="96" rx="22" fill="white" fill-opacity=".08"/>
      <rect x="822" y="216" width="96" height="96" rx="22" fill="#BFF7FF"/>
      <rect x="930" y="216" width="96" height="96" rx="22" fill="white" fill-opacity=".08"/>
      <rect x="606" y="324" width="96" height="96" rx="22" fill="white" fill-opacity=".08"/>
      <rect x="714" y="324" width="96" height="96" rx="22" fill="#78A7FF"/>
      <rect x="822" y="324" width="96" height="96" rx="22" fill="white" fill-opacity=".08"/>
      <rect x="930" y="324" width="96" height="96" rx="22" fill="#FFE36D"/>
      <rect x="606" y="432" width="96" height="96" rx="22" fill="#A58BFF"/>
      <rect x="714" y="432" width="96" height="96" rx="22" fill="white" fill-opacity=".08"/>
      <rect x="822" y="432" width="96" height="96" rx="22" fill="#FF8CC6"/>
      <rect x="930" y="432" width="96" height="96" rx="22" fill="white" fill-opacity=".08"/>
      <rect x="606" y="540" width="96" height="96" rx="22" fill="white" fill-opacity=".08"/>
      <rect x="714" y="540" width="96" height="96" rx="22" fill="#FFB166"/>
      <rect x="822" y="540" width="96" height="96" rx="22" fill="white" fill-opacity=".08"/>
      <rect x="930" y="540" width="96" height="96" rx="22" fill="#58FFC9"/>
    </g>
    <text x="654" y="276" fill="#123229" font-family="Inter, Arial, sans-serif" font-size="34" font-weight="900" text-anchor="middle">2</text>
    <text x="870" y="276" fill="#102E39" font-family="Inter, Arial, sans-serif" font-size="34" font-weight="900" text-anchor="middle">4</text>
    <text x="762" y="384" fill="#071F42" font-family="Inter, Arial, sans-serif" font-size="34" font-weight="900" text-anchor="middle">16</text>
    <text x="978" y="384" fill="#382D05" font-family="Inter, Arial, sans-serif" font-size="34" font-weight="900" text-anchor="middle">512</text>
    <text x="654" y="492" fill="#1A103F" font-family="Inter, Arial, sans-serif" font-size="34" font-weight="900" text-anchor="middle">32</text>
    <text x="870" y="492" fill="#3C1027" font-family="Inter, Arial, sans-serif" font-size="34" font-weight="900" text-anchor="middle">128</text>
    <text x="762" y="600" fill="#3B1C07" font-family="Inter, Arial, sans-serif" font-size="34" font-weight="900" text-anchor="middle">256</text>
    <text x="978" y="600" fill="#063125" font-family="Inter, Arial, sans-serif" font-size="32" font-weight="900" text-anchor="middle">2048</text>
  </g>
  <path d="M508 756H1132" stroke="#FFFFFF" stroke-opacity=".1" stroke-width="3"/>
  <path d="M594 792H1018" stroke="#58FFC9" stroke-opacity=".34" stroke-width="7" stroke-linecap="round"/>
  <text x="88" y="152" fill="#FFFFFF" font-family="Inter, Arial, sans-serif" font-size="78" font-weight="850" letter-spacing="-2">Number Merge</text>
  <text x="94" y="212" fill="#A9B4C4" font-family="Inter, Arial, sans-serif" font-size="32" font-weight="700">A polished 2048-style HTML5 puzzle for fast thinking.</text>
  <rect x="96" y="260" width="188" height="44" rx="22" fill="#58FFC9" fill-opacity=".16" stroke="#58FFC9" stroke-opacity=".32"/>
  <text x="126" y="290" fill="#DFFFF1" font-family="Inter, Arial, sans-serif" font-size="18" font-weight="850" letter-spacing="2">PUZZLE</text>
  <rect x="306" y="260" width="228" height="44" rx="22" fill="#FFE36D" fill-opacity=".14" stroke="#FFE36D" stroke-opacity=".28"/>
  <text x="336" y="290" fill="#FFF4CF" font-family="Inter, Arial, sans-serif" font-size="18" font-weight="850" letter-spacing="2">MERGE LOGIC</text>
  <defs>
    <linearGradient id="bg" x1="160" y1="76" x2="1398" y2="836" gradientUnits="userSpaceOnUse">
      <stop stop-color="#141B2B"/>
      <stop offset=".5" stop-color="#0A1020"/>
      <stop offset="1" stop-color="#050609"/>
    </linearGradient>
    <filter id="shadow" x="512" y="138" width="616" height="612" filterUnits="userSpaceOnUse" color-interpolation-filters="sRGB">
      <feFlood flood-opacity="0" result="BackgroundImageFix"/>
      <feColorMatrix in="SourceAlpha" type="matrix" values="0 0 0 0 0 0 0 0 0 0 0 0 0 0 0 0 0 0 127 0" result="hardAlpha"/>
      <feOffset dy="18"/>
      <feGaussianBlur stdDeviation="24"/>
      <feComposite in2="hardAlpha" operator="out"/>
      <feColorMatrix type="matrix" values="0 0 0 0 0 0 0 0 0 0 0 0 0 0 0 0 0 0 0.42 0"/>
      <feBlend mode="normal" in2="BackgroundImageFix" result="effect1_dropShadow"/>
      <feBlend mode="normal" in="SourceGraphic" in2="effect1_dropShadow" result="shape"/>
    </filter>
  </defs>
</svg>
