<svg xmlns="http://www.w3.org/2000/svg" viewBox="0 0 1400 760" role="img" aria-labelledby="title desc">
  <title id="title">Tic Tac Toe cover</title>
  <desc id="desc">A premium dark tic tac toe scene with glowing X and O marks.</desc>
  <defs>
    <linearGradient id="bg" x1="0" x2="1" y1="0" y2="1">
      <stop offset="0" stop-color="#141b2d"/>
      <stop offset=".55" stop-color="#090d17"/>
      <stop offset="1" stop-color="#050608"/>
    </linearGradient>
    <filter id="soft" x="-30%" y="-30%" width="160%" height="160%">
      <feGaussianBlur stdDeviation="16"/>
    </filter>
  </defs>
  <rect width="1400" height="760" fill="url(#bg)"/>
  <circle cx="190" cy="150" r="190" fill="#62ffae" opacity=".13" filter="url(#soft)"/>
  <circle cx="1160" cy="600" r="230" fill="#6bdcff" opacity=".12" filter="url(#soft)"/>
  <g transform="translate(750 110) rotate(3)">
    <rect width="420" height="420" rx="34" fill="#080b13" stroke="#ffffff" stroke-opacity=".13"/>
    <g stroke="#ffffff" stroke-opacity=".15" stroke-width="3">
      <path d="M155 35v350M275 35v350M35 155h350M35 275h350"/>
    </g>
    <g fill="none" stroke-linecap="round" stroke-width="16">
      <path d="M70 70l58 58M128 70l-58 58" stroke="#62ffae"/>
      <circle cx="215" cy="99" r="36" stroke="#6bdcff"/>
      <path d="M302 70l58 58M360 70l-58 58" stroke="#62ffae"/>
      <circle cx="99" cy="215" r="36" stroke="#6bdcff"/>
      <path d="M186 186l58 58M244 186l-58 58" stroke="#62ffae"/>
      <circle cx="331" cy="215" r="36" stroke="#6bdcff"/>
      <path d="M70 302l58 58M128 302l-58 58" stroke="#62ffae"/>
    </g>
  </g>
  <text x="92" y="278" fill="#62ffae" font-family="Inter, Arial, sans-serif" font-size="18" font-weight="900" letter-spacing="8">PIXLO ORIGINAL</text>
  <text x="92" y="360" fill="#f8fbff" font-family="Inter, Arial, sans-serif" font-size="96" font-weight="950">Tic Tac Toe</text>
  <text x="98" y="416" fill="#a6b1c2" font-family="Inter, Arial, sans-serif" font-size="28" font-weight="700">Fast local strategy. Three marks. One clean line.</text>
</svg>
