<svg xmlns="http://www.w3.org/2000/svg" width="1500" height="900" viewBox="0 0 1500 900" role="img" aria-label="Brick Breaker cover">
  <defs>
    <linearGradient id="bg" x1="0" y1="0" x2="1" y2="1">
      <stop offset="0" stop-color="#121729"/>
      <stop offset=".55" stop-color="#080a12"/>
      <stop offset="1" stop-color="#050609"/>
    </linearGradient>
    <linearGradient id="paddle" x1="0" y1="0" x2="1" y2="1">
      <stop offset="0" stop-color="#5ef2b6"/>
      <stop offset="1" stop-color="#b6ffd8"/>
    </linearGradient>
  </defs>
  <rect width="1500" height="900" fill="url(#bg)"/>
  <circle cx="260" cy="170" r="280" fill="#5ef2b6" opacity=".14"/>
  <circle cx="1230" cy="710" r="360" fill="#ffd166" opacity=".11"/>
  <rect x="690" y="165" width="650" height="420" rx="42" fill="#071014" stroke="#ffffff" stroke-opacity=".14" stroke-width="2"/>
  <g>
    <rect x="752" y="225" width="88" height="30" rx="8" fill="#5ef2b6"/>
    <rect x="858" y="225" width="88" height="30" rx="8" fill="#75d8ff"/>
    <rect x="964" y="225" width="88" height="30" rx="8" fill="#ffd166"/>
    <rect x="1070" y="225" width="88" height="30" rx="8" fill="#ff8fab"/>
    <rect x="1176" y="225" width="88" height="30" rx="8" fill="#b6ffd8"/>
    <rect x="805" y="275" width="88" height="30" rx="8" fill="#75d8ff"/>
    <rect x="911" y="275" width="88" height="30" rx="8" fill="#ffd166"/>
    <rect x="1017" y="275" width="88" height="30" rx="8" fill="#ff8fab"/>
    <rect x="1123" y="275" width="88" height="30" rx="8" fill="#5ef2b6"/>
  </g>
  <circle cx="1020" cy="430" r="20" fill="#ffffff"/>
  <rect x="892" y="520" width="220" height="26" rx="13" fill="url(#paddle)"/>
  <path d="M1020 430 1128 318" stroke="#ffffff" stroke-opacity=".28" stroke-width="3" stroke-dasharray="10 10"/>
  <text x="150" y="326" font-family="Inter, Arial, sans-serif" font-size="102" font-weight="950" letter-spacing="-7" fill="#ffffff">Brick</text>
  <text x="150" y="426" font-family="Inter, Arial, sans-serif" font-size="102" font-weight="950" letter-spacing="-7" fill="#ffffff">Breaker</text>
  <text x="157" y="486" font-family="Inter, Arial, sans-serif" font-size="27" font-weight="800" letter-spacing="4" fill="#5ef2b6">BOUNCE. CLEAR. SURVIVE.</text>
</svg>
