<svg xmlns="http://www.w3.org/2000/svg" width="900" height="620" viewBox="0 0 900 620" role="img" aria-label="Brick Breaker thumbnail">
  <defs>
    <linearGradient id="bg" x1="0" y1="0" x2="1" y2="1">
      <stop offset="0" stop-color="#111827"/>
      <stop offset="1" stop-color="#050609"/>
    </linearGradient>
    <linearGradient id="paddle" x1="0" y1="0" x2="1" y2="1">
      <stop offset="0" stop-color="#5ef2b6"/>
      <stop offset="1" stop-color="#b6ffd8"/>
    </linearGradient>
  </defs>
  <rect width="900" height="620" fill="url(#bg)"/>
  <circle cx="178" cy="126" r="168" fill="#5ef2b6" opacity=".13"/>
  <circle cx="755" cy="496" r="214" fill="#ffd166" opacity=".12"/>
  <rect x="145" y="104" width="610" height="390" rx="30" fill="#071014" stroke="#ffffff" stroke-opacity=".14" stroke-width="2"/>
  <g>
    <rect x="190" y="154" width="82" height="28" rx="8" fill="#5ef2b6"/>
    <rect x="288" y="154" width="82" height="28" rx="8" fill="#75d8ff"/>
    <rect x="386" y="154" width="82" height="28" rx="8" fill="#ffd166"/>
    <rect x="484" y="154" width="82" height="28" rx="8" fill="#ff8fab"/>
    <rect x="582" y="154" width="82" height="28" rx="8" fill="#b6ffd8"/>
    <rect x="239" y="200" width="82" height="28" rx="8" fill="#75d8ff"/>
    <rect x="337" y="200" width="82" height="28" rx="8" fill="#ffd166"/>
    <rect x="435" y="200" width="82" height="28" rx="8" fill="#ff8fab"/>
    <rect x="533" y="200" width="82" height="28" rx="8" fill="#5ef2b6"/>
  </g>
  <circle cx="492" cy="346" r="18" fill="#ffffff"/>
  <rect x="362" y="427" width="176" height="22" rx="11" fill="url(#paddle)"/>
  <path d="M492 346 580 258" stroke="#ffffff" stroke-opacity=".28" stroke-width="3" stroke-dasharray="9 9"/>
  <text x="450" y="62" text-anchor="middle" font-family="Inter, Arial, sans-serif" font-size="22" font-weight="900" letter-spacing="5" fill="#5ef2b6">PIXLOGAMES</text>
</svg>
